#!OML:ASF F:\VICON\USERDATA\INSTALL\rory3\rory3.ASF
:FULLY-SPECIFIED
:DEGREES
2371
root 0.651903 18.2316 2.24902 18.9196 4.98193 -0.61292
lowerback -2.35274 -0.502007 3.3933
upperback -10.4358 -0.26443 3.65379
thorax -9.73909 -0.222417 2.01627
lowerneck -3.47959 -1.587 1.90568
upperneck 10.6153 -1.17439 -10.8501
head 3.63637 -1.01562 -3.67625
rclavicle 9.74045e-015 -2.22639e-014
rhumerus -37.2868 3.90823 -80.1117
rradius 135.271
rwrist 32.4602
rhand 20.7359 6.10644
rfingers 7.12502
rthumb 45.2199 -17.306
lclavicle 9.74045e-015 -2.22639e-014
lhumerus -38.0716 -9.59004 90.6253
lradius 117.829
lwrist -23.5453
lhand -6.43755 15.2483
lfingers 7.12502
lthumb 19.4117 44.2994
rfemur -14.5617 21.3917 15.0737
rtibia 8.87307
rfoot -26.2011 -30.6574
rtoes 30.2672
lfemur -15.5085 -37.2601 -11.1873
ltibia 9.45744
lfoot -11.9537 38.05
ltoes 6.49054
2372
root 0.653031 18.2308 2.24622 18.9106 5.05365 -0.618568
lowerback -2.41433 -0.510678 3.35473
upperback -10.407 -0.284424 3.62746
thorax -9.66872 -0.230038 2.00852
lowerneck -3.58763 -1.55376 2.03827
upperneck 10.7983 -1.11641 -10.9067
head 3.71151 -0.992711 -3.71819
rclavicle 6.85807e-015 -3.02153e-014
rhumerus -37.321 3.73147 -80.0928
rradius 135.243
rwrist 32.5222
rhand 20.9216 6.13698
rfingers 7.12502
rthumb 45.3926 -17.2062
lclavicle 6.85807e-015 -3.02153e-014
lhumerus -37.9873 -9.66542 90.6514
lradius 117.796
lwrist -23.5036
lhand -6.3101 15.1767
lfingers 7.12502
lthumb 19.5342 44.2154
rfemur -14.5181 21.3799 15.0959
rtibia 8.82646
rfoot -26.2139 -30.692
rtoes 30.2117
lfemur -15.5204 -37.3543 -11.1519
ltibia 9.43846
lfoot -11.957 38.0891
ltoes 6.49992
2373
root 0.65367 18.2299 2.24356 18.8581 5.13677 -0.628791
lowerback -2.37875 -0.530876 3.33809
upperback -10.418 -0.310971 3.60684
thorax -9.70166 -0.24283 1.99836
lowerneck -3.50785 -1.57908 1.98938
upperneck 10.8341 -1.15197 -10.8358
head 3.70745 -1.00766 -3.68902
rclavicle 1.46107e-014 -6.36111e-015
rhumerus -37.4528 3.61785 -80.0827
rradius 135.238
rwrist 32.6393
rhand 21.2753 6.0877
rfingers 7.12502
rthumb 45.7212 -17.122
lclavicle 1.46107e-014 -6.36111e-015
lhumerus -38.0624 -9.76394 90.7077
lradius 117.805
lwrist -23.481
lhand -6.38254 15.1517
lfingers 7.12502
lthumb 19.4646 44.1974
rfemur -14.3981 21.3648 15.1524
rtibia 8.75458
rfoot -26.3467 -30.6796
rtoes 30.7354
lfemur -15.501 -37.4624 -11.131
ltibia 9.44768
lfoot -11.6891 38.1862
ltoes 5.83734
2374
root 0.651899 18.2289 2.2412 18.8072 5.287 -0.701632
lowerback -2.34783 -0.565527 3.38148
upperback -10.4453 -0.353606 3.59612
thorax -9.7514 -0.268214 1.96694
lowerneck -3.4854 -1.62031 1.93544
upperneck 10.9919 -1.20342 -10.7127
head 3.74924 -1.03334 -3.64626
rclavicle -5.56597e-015 1.27222e-014
rhumerus -37.6108 3.45758 -80.0427
rradius 135.23
rwrist 32.6567
rhand 21.4922 6.31547
rfingers 7.12502
rthumb 45.9225 -16.8113
lclavicle -5.56597e-015 1.27222e-014
lhumerus -38.1885 -9.9088 90.7729
lradius 117.81
lwrist -23.4698
lhand -6.55166 15.1913
lfingers 7.12502
lthumb 19.302 44.2534
rfemur -14.2678 21.3149 15.3246
rtibia 8.69064
rfoot -26.6141 -30.5702
rtoes 31.8492
lfemur -15.5306 -37.6023 -10.9774
ltibia 9.47068
lfoot -11.4732 38.2648
ltoes 5.44034
2375
root 0.649825 18.2287 2.23717 18.7521 5.36673 -0.703202
lowerback -2.28068 -0.594017 3.31108
upperback -10.4775 -0.391028 3.56704
thorax -9.82625 -0.282327 1.9798
lowerneck -3.44878 -1.66836 1.95781
upperneck 11.132 -1.263 -10.6751
head 3.78117 -1.06308 -3.64256
rclavicle -1.37161e-014 2.22639e-014
rhumerus -37.7835 3.29098 -80.0175
rradius 135.249
rwrist 32.5913
rhand 21.4929 6.63972
rfingers 7.12502
rthumb 45.9232 -16.4867
lclavicle -1.37161e-014 2.22639e-014
lhumerus -38.2032 -10.0009 90.8018
lradius 117.763
lwrist -23.4473
lhand -6.56482 15.281
lfingers 7.12502
lthumb 19.2893 44.3444
rfemur -14.2021 21.3004 15.3738
rtibia 8.68185
rfoot -26.7898 -30.5354
rtoes 32.529
lfemur -15.5259 -37.7026 -10.9358
ltibia 9.46597
lfoot -11.3446 38.3328
ltoes 5.27179
2376
root 0.649447 18.2286 2.23436 18.7033 5.37813 -0.699078
lowerback -2.19297 -0.612649 3.22641
upperback -10.5336 -0.412538 3.55182
thorax -9.94053 -0.286702 2.01585
lowerneck -3.36385 -1.69714 1.94682
upperneck 11.2126 -1.29506 -10.6786
head 3.78888 -1.07958 -3.64334
rclavicle 2.78299e-015 -2.22639e-014
rhumerus -38.0038 3.22163 -80.0265
rradius 135.261
rwrist 32.6677
rhand 21.4097 6.7265
rfingers 7.12502
rthumb 45.846 -16.4319
lclavicle 2.78299e-015 -2.22639e-014
lhumerus -38.2379 -10.0165 90.836
lradius 117.707
lwrist -23.4691
lhand -6.53813 15.3439
lfingers 7.12502
lthumb 19.315 44.4047
rfemur -14.1845 21.3428 15.3705
rtibia 8.71848
rfoot -26.8155 -30.6045
rtoes 32.3025
lfemur -15.4644 -37.7506 -10.9705
ltibia 9.44079
lfoot -11.1149 38.4151
ltoes 4.9343
2377
root 0.649682 18.2287 2.23192 18.6316 5.38506 -0.63117
lowerback -2.13835 -0.62669 3.086
upperback -10.5356 -0.436443 3.51422
thorax -9.97245 -0.28828 2.05643
lowerneck -3.31345 -1.71636 1.92593
upperneck 11.252 -1.31839 -10.6632
head 3.79099 -1.09095 -3.63599
rclavicle 1.49089e-014 -9.54166e-015
rhumerus -38.1136 3.12727 -80.039
rradius 135.224
rwrist 32.8055
rhand 21.2574 6.73846
rfingers 7.12502
rthumb 45.7046 -16.4781
lclavicle 1.49089e-014 -9.54166e-015
lhumerus -38.2877 -10.0003 90.8843
lradius 117.716
lwrist -23.5204
lhand -6.46304 15.3044
lfingers 7.12502
lthumb 19.3872 44.3579
rfemur -14.1267 21.3717 15.3175
rtibia 8.77631
rfoot -26.7794 -30.7648
rtoes 31.5636
lfemur -15.3615 -37.8211 -11.0964
ltibia 9.41257
lfoot -10.7449 38.4989
ltoes 4.32602
2378
root 0.65022 18.2297 2.22857 18.5638 5.43719 -0.568146
lowerback -2.11266 -0.643869 2.97967
upperback -10.5175 -0.46702 3.46289
thorax -9.96475 -0.296764 2.06245
lowerneck -3.1229 -1.82093 1.83593
upperneck 11.0474 -1.48165 -10.5803
head 3.68846 -1.16033 -3.59521
rclavicle -1.5207e-014 2.70347e-014
rhumerus -38.1665 2.98583 -80.0671
rradius 135.208
rwrist 32.86
rhand 21.2475 6.7743
rfingers 7.12502
rthumb 45.6954 -16.446
lclavicle -1.5207e-014 2.70347e-014
lhumerus -38.3128 -9.96379 90.8897
lradius 117.746
lwrist -23.5881
lhand -6.41126 15.251
lfingers 7.12502
lthumb 19.437 44.2995
rfemur -14.041 21.3606 15.2891
rtibia 8.7939
rfoot -26.6825 -30.9726
rtoes 30.8168
lfemur -15.3073 -37.9291 -11.1827
ltibia 9.43383
lfoot -10.9509 38.4934
ltoes 4.87126
2379
root 0.650085 18.2289 2.22497 18.4607 5.4834 -0.593424
lowerback -2.07575 -0.64801 2.93788
upperback -10.492 -0.475079 3.44
thorax -9.95674 -0.298196 2.06154
lowerneck -2.82355 -1.99224 1.6453
upperneck 10.6896 -1.74983 -10.4257
head 3.51766 -1.27515 -3.5147
rclavicle 1.2424e-014 -1.74931e-014
rhumerus -38.2335 2.87437 -80.0974
rradius 135.225
rwrist 32.7856
rhand 21.3283 6.73213
rfingers 7.12502
rthumb 45.7704 -16.4574
lclavicle 1.2424e-014 -1.74931e-014
lhumerus -38.3176 -10.0056 90.9097
lradius 117.738
lwrist -23.6253
lhand -6.51414 15.2589
lfingers 7.12502
lthumb 19.3381 44.3174
rfemur -13.9268 21.3866 15.3574
rtibia 8.77575
rfoot -26.7709 -31.0064
rtoes 31.0923
lfemur -15.2327 -38.0056 -11.2014
ltibia 9.49603
lfoot -11.0612 38.5112
ltoes 4.95766
2380
root 0.651631 18.2272 2.22547 18.2685 5.39516 -0.686138
lowerback -2.03143 -0.611019 2.93631
upperback -10.4104 -0.426856 3.43929
thorax -9.89098 -0.274192 2.05646
lowerneck -2.87914 -2.01111 1.64538
upperneck 10.7522 -1.76888 -10.4329
head 3.54452 -1.28814 -3.51945
rclavicle -1.30204e-014 1.27222e-014
rhumerus -38.2641 2.80343 -80.0998
rradius 135.238
rwrist 32.7401
rhand 21.3531 6.58836
rfingers 7.12502
rthumb 45.7934 -16.5917
lclavicle -1.30204e-014 1.27222e-014
lhumerus -38.2458 -10.0609 90.9242
lradius 117.694
lwrist -23.6573
lhand -6.52928 15.2831
lfingers 7.12502
lthumb 19.3235 44.343
rfemur -13.6954 21.5653 15.4668
rtibia 8.66644
rfoot -26.7707 -31.1412
rtoes 31.2226
lfemur -15.007 -37.9603 -11.3323
ltibia 9.63739
lfoot -11.176 38.5603
ltoes 4.94557
2381
root 0.653088 18.2257 2.23101 18.0863 5.19835 -0.831406
lowerback -1.99828 -0.549268 2.9587
upperback -10.3634 -0.341555 3.46304
thorax -9.85899 -0.232795 2.06285
lowerneck -3.20364 -1.85641 1.75473
upperneck 11.2445 -1.51181 -10.5297
head 3.76103 -1.18389 -3.57171
rclavicle 9.64106e-015 -7.15625e-015
rhumerus -38.3589 2.84581 -80.1185
rradius 135.265
rwrist 32.7345
rhand 21.3629 6.44779
rfingers 7.12502
rthumb 45.8025 -16.7285
lclavicle 9.64106e-015 -7.15625e-015
lhumerus -38.2966 -10.053 90.9539
lradius 117.705
lwrist -23.6984
lhand -6.50792 15.3382
lfingers 7.12502
lthumb 19.344 44.3961
rfemur -13.4466 21.8624 15.5881
rtibia 8.47508
rfoot -26.4667 -31.5003
rtoes 30.2797
lfemur -14.7474 -37.8034 -11.4887
ltibia 9.85067
lfoot -11.7646 38.5422
ltoes 5.65739
2382
root 0.651297 18.2252 2.23386 17.9718 5.07849 -0.931815
lowerback -1.96148 -0.51881 2.92809
upperback -10.3702 -0.297894 3.48332
thorax -9.88893 -0.207589 2.0997
lowerneck -3.36281 -1.76728 1.77556
upperneck 11.5613 -1.36066 -10.5596
head 3.89252 -1.12318 -3.5866
rclavicle 1.15295e-014 9.54166e-015
rhumerus -38.4843 2.90109 -80.1522
rradius 135.309
rwrist 32.7304
rhand 21.3252 6.53003
rfingers 7.12502
rthumb 45.7676 -16.6607
lclavicle 1.15295e-014 9.54166e-015
lhumerus -38.3876 -10.0261 90.9551
lradius 117.695
lwrist -23.7278
lhand -6.48955 15.2983
lfingers 7.12502
lthumb 19.3617 44.3544
rfemur -13.2988 22.0699 15.6797
rtibia 8.3581
rfoot -26.3324 -31.6969
rtoes 29.7486
lfemur -14.6106 -37.7096 -11.5479
ltibia 9.99938
lfoot -12.2544 38.5187
ltoes 6.3829
2383
root 0.651776 18.2242 2.23242 17.847 5.11128 -0.982726
lowerback -1.96593 -0.52598 2.93766
upperback -10.3259 -0.309604 3.48292
thorax -9.8358 -0.214093 2.09306
lowerneck -3.47694 -1.76779 1.67208
upperneck 11.6987 -1.34512 -10.5173
head 3.95612 -1.12479 -3.55963
rclavicle 0 7.95139e-016
rhumerus -38.4554 2.88809 -80.1654
rradius 135.347
rwrist 32.6783
rhand 21.433 6.61463
rfingers 7.12502
rthumb 45.8676 -16.5348
lclavicle 0 7.95139e-016
lhumerus -38.3286 -10.0192 90.9391
lradius 117.651
lwrist -23.7623
lhand -6.39755 15.1984
lfingers 7.12502
lthumb 19.4502 44.2456
rfemur -13.1018 22.1168 15.777
rtibia 8.24736
rfoot -26.5416 -31.6878
rtoes 30.3807
lfemur -14.5336 -37.7708 -11.5704
ltibia 10.1366
lfoot -12.5606 38.5305
ltoes 6.82337
2384
root 0.654334 18.2237 2.23245 17.7088 5.13698 -0.918744
lowerback -2.01588 -0.53154 2.85572
upperback -10.2522 -0.330027 3.43449
thorax -9.72068 -0.219539 2.08466
lowerneck -3.54319 -1.7739 1.60934
upperneck 11.7381 -1.35139 -10.4523
head 3.98033 -1.13015 -3.53087
rclavicle -1.2424e-014 -2.94201e-014
rhumerus -38.3891 2.84044 -80.1722
rradius 135.353
rwrist 32.6505
rhand 21.6225 6.69014
rfingers 7.12502
rthumb 46.0435 -16.3863
lclavicle -1.2424e-014 -2.94201e-014
lhumerus -38.2747 -10.1188 90.9094
lradius 117.615
lwrist -23.6604
lhand -6.37322 15.1967
lfingers 7.12502
lthumb 19.4735 44.2415
rfemur -12.854 22.1334 15.7575
rtibia 8.11369
rfoot -26.5841 -31.7889
rtoes 30.8889
lfemur -14.4057 -37.7831 -11.7777
ltibia 10.2757
lfoot -12.4534 38.5268
ltoes 6.43298
